<svg width="56" height="58" viewBox="0 0 56 58" fill="none" xmlns="http://www.w3.org/2000/svg">
     <path d="M28.1334 0C12.8177 0 0.266724 13.1747 0.266724 29.1133C0.266724 44.9594 12.7033 58 28.1334 58C43.5443 58 56.0001 44.9789 56.0001 29.1133C56.0001 13.1747 43.4491 0 28.1334 0ZM33.0318 54.0918C31.4645 54.4316 29.7989 54.6016 28.1334 54.6016C26.4678 54.6016 24.8023 54.4316 23.235 54.0918V46.1395C23.235 44.2363 23.7248 43.5566 24.3779 42.6389C24.7104 42.2433 24.9111 41.8884 26.4024 39.5467L23.8881 39.1387C17.4219 38.1532 14.8749 34.6526 13.8624 31.9338C12.5562 28.2977 13.2421 23.7435 15.5935 20.8553C15.9528 20.4132 16.2466 19.6654 15.9855 18.8839C15.4953 17.3205 15.5607 14.8398 15.8873 13.888C17.6188 14.1456 19.3991 15.4363 20.884 16.3691C21.5681 16.7847 21.927 16.6749 22.2553 16.709C23.4484 16.4506 25.3096 15.8253 28.1661 15.8253C29.9295 15.8253 31.7911 16.097 33.6199 16.6408C33.9469 16.6329 34.4724 16.9223 35.3832 16.3691C36.9353 15.385 38.6553 14.1385 40.3795 13.888C40.706 14.8398 40.7715 17.3205 40.2817 18.8839C40.0202 19.6654 40.314 20.4132 40.6737 20.8553C43.0247 23.7439 43.7106 28.2977 42.4043 31.9338C41.3919 34.6526 38.8449 38.1532 32.3787 39.1387L29.8644 39.5467C31.4058 41.9672 31.5683 42.2574 31.8893 42.6389C32.542 43.5566 33.0318 44.2363 33.0318 46.1395V54.0918ZM36.2975 53.1063V46.1395C36.2975 44.2023 35.9054 42.911 35.3828 41.9592C40.3467 40.5662 43.8739 37.5072 45.4412 33.1233C47.1068 28.5017 46.3558 22.9961 43.5796 19.1897C44.0699 16.913 44.0699 13.2765 42.8942 11.5773C42.3716 10.8299 41.653 10.4219 40.7388 10.4219C40.706 10.4219 40.706 10.4219 40.706 10.4219C38.1739 10.5644 36.1809 11.8914 34.0443 13.2424C32.0849 12.6986 30.0928 12.4269 28.1006 12.4269C26.0762 12.4269 24.0514 12.7326 22.2557 13.2424C20.0063 11.8308 18.0325 10.5608 15.4302 10.4219C14.6138 10.4219 13.8952 10.8299 13.3726 11.5773C12.1973 13.2765 12.1973 16.913 12.6872 19.1897C9.91095 22.9961 9.16002 28.5354 10.8256 33.1233C12.3929 37.5072 15.92 40.5662 20.884 41.9592C20.4787 42.6969 20.1581 43.6487 20.0318 44.9368C19.0292 45.2966 18.1596 45.4138 17.3509 45.1665C16.4979 44.9041 15.8333 44.3116 15.2559 43.3009C13.959 41.0335 11.75 39.1825 9.23486 39.4232L9.52188 42.8084C10.6865 42.6973 11.8457 43.9797 12.4478 45.0368C13.4411 46.7776 14.7792 47.9193 16.426 48.4255C17.6485 48.8003 18.766 48.7915 19.9693 48.5242V53.1063C10.4663 49.6398 3.53235 40.1923 3.53235 29.1133C3.53235 15.0438 14.6138 3.39844 28.1334 3.39844C41.653 3.39844 52.7344 15.0438 52.7344 29.1133C52.7344 40.1923 45.8005 49.6398 36.2975 53.1063Z" fill="black"/>
</svg>