<svg width="57" height="58" viewBox="0 0 57 58" fill="none" xmlns="http://www.w3.org/2000/svg">
        <g clip-path="url(#clip0)">
        <path d="M48.2026 0H8.79736C4.29565 0 0.633301 3.81129 0.633301 8.49609V49.5039C0.633301 54.1887 4.29565 58 8.79736 58H48.2026C52.7043 58 56.3666 54.1887 56.3666 49.5039V8.49609C56.3666 3.81129 52.7043 0 48.2026 0ZM53.101 49.5039C53.101 52.3147 50.9035 54.6016 48.2026 54.6016H8.79736C6.09642 54.6016 3.89893 52.3147 3.89893 49.5039V8.49609C3.89893 5.6853 6.09642 3.39844 8.79736 3.39844H48.2026C50.9035 3.39844 53.101 5.6853 53.101 8.49609V49.5039Z" fill="black"/>
        <path d="M10.539 47.8047H20.3359V23.7891H10.539V47.8047ZM13.8047 27.1875H17.0703V44.4062H13.8047V27.1875Z" fill="black"/>
        <path d="M36.6734 23.7891C36.6704 23.7891 36.667 23.7891 36.664 23.7891C35.5351 23.7891 34.4355 23.9855 33.3984 24.367V23.7891H23.6015V47.8047H33.3984V35.6836C33.3984 34.7468 34.131 33.9844 35.0312 33.9844C35.9314 33.9844 36.664 34.7468 36.664 35.6836V47.8047H46.4609V34.5154C46.4609 29.0159 42.1739 23.7944 36.6734 23.7891ZM43.1953 44.4062H39.9297V35.6836C39.9297 32.8728 37.7322 30.5859 35.0312 30.5859C32.3303 30.5859 30.1332 32.8728 30.1328 35.6832V44.4062H26.8672V27.1875H30.1328V30.5882L32.7461 28.5455C33.8827 27.657 35.2374 27.1875 36.664 27.1875H36.6704C40.1461 27.191 43.1953 30.6151 43.1953 34.5154V44.4062Z" fill="black"/>
        <path d="M10.539 20.3906H20.3359V10.1953H10.539V20.3906ZM13.8047 13.5938H17.0703V16.9922H13.8047V13.5938Z" fill="black"/>
        </g>
        <defs>
        <clipPath id="clip0">
        <rect width="55.7333" height="58" fill="white" transform="translate(0.633301)"/>
        </clipPath>
        </defs>
</svg>