<svg width="56" height="58" viewBox="0 0 56 58" fill="none" xmlns="http://www.w3.org/2000/svg">
        <g clip-path="url(#clip0)">
        <path d="M55.7333 11.6639C52.2275 11.8321 52.304 11.8184 51.9077 11.8529L53.984 5.68216C53.984 5.68216 47.5029 8.16329 45.8599 8.60712C41.5449 4.57103 35.131 4.3927 30.5455 7.32563C26.7905 9.72799 24.775 13.8535 25.4472 18.6754C18.1391 17.6201 11.9816 14.015 7.12017 7.93761L5.5826 6.01581L4.43368 8.21152C2.98158 10.986 2.49939 14.1583 3.07556 17.1439C3.31197 18.3688 3.7138 19.537 4.2704 20.6309L2.95139 20.099L2.79492 22.3925C2.63631 24.7223 3.38171 27.4419 4.78916 29.6668C5.18545 30.2934 5.69571 30.9815 6.34246 31.6603L5.66084 31.5514L6.49256 34.1795C7.58577 37.6323 9.8564 40.3037 12.8031 41.7888C9.86023 43.0884 7.48287 43.9177 3.57518 45.2554L0 46.4785L3.30219 48.3573C4.56124 49.0737 9.01023 51.4664 13.4061 52.1841C23.1774 53.7789 34.1789 52.4801 41.5853 45.5386C47.8235 39.6918 49.8705 31.3749 49.4453 22.7199C49.3811 21.4097 49.7259 20.1592 50.4165 19.1994C51.7997 17.2776 55.7248 11.6768 55.7333 11.6639ZM47.8053 17.1638C46.6585 18.7573 46.084 20.7924 46.1869 22.8934C46.6159 31.6236 44.3334 38.3939 39.4022 43.0154C33.6419 48.4144 24.3506 50.5336 13.9116 48.8295C12.0212 48.5211 10.0673 47.8303 8.45023 47.1404C11.7265 45.9674 14.2565 44.9217 18.3424 42.9092L24.0461 40.0998L17.7488 39.6803C14.7323 39.4794 12.2206 37.958 10.6766 35.488C11.4964 35.4384 12.2869 35.3003 13.074 35.072L19.0801 33.3312L13.0238 31.7877C10.0809 31.0377 8.40346 29.2053 7.51434 27.7999C6.93052 26.8764 6.54911 25.9303 6.32034 25.0581C6.92755 25.2276 7.63552 25.3484 8.77722 25.4661L14.3828 26.0431L9.94145 22.4376C6.7413 19.8401 5.45887 15.9377 6.39901 12.1861C16.3864 22.9664 28.1129 22.1562 29.2932 22.4412C29.0334 19.8149 29.0266 19.8087 28.9586 19.5587C27.447 13.9977 30.7598 11.1741 32.254 10.2183C35.375 8.22214 40.3292 7.92124 43.7606 11.2099C44.5018 11.9197 45.504 12.1989 46.442 11.9564C47.284 11.7387 47.9749 11.5082 48.6514 11.2573L47.2431 15.4425L49.0409 15.4438C48.7016 15.9173 48.2947 16.4841 47.8053 17.1638Z" fill="black"/>
        </g>
        <defs>
        <clipPath id="clip0">
        <rect  width="55.7333" height="58" fill="white"/>
        </clipPath>
        </defs>
</svg>