<svg width="113" height="163" viewBox="0 0 113 163" fill="none" 
    xmlns="http://www.w3.org/2000/svg">
    <path d="M26.2866 79.0846C25.9609 78.8364 25.6117 78.6287 25.239 78.4617C24.8715 78.2856 24.4989 78.1186 24.121 77.9606C23.7522 77.8078 23.3788 77.6523 23.001 77.4943C22.6283 77.3273 22.2739 77.1287 21.9377 76.8985C21.8437 76.8322 21.7529 76.7497 21.6655 76.6511C21.5871 76.5578 21.6012 76.4396 21.7078 76.2967C21.7741 76.2026 21.881 76.132 22.0285 76.0849C22.176 76.0378 22.2968 76.0473 22.3908 76.1136L26.6045 78.2216C26.6395 78.1817 26.694 78.129 26.768 78.0634C26.8471 77.9889 26.9327 77.924 27.0247 77.8688C27.1166 77.8137 27.2098 77.7773 27.3042 77.7596C27.4038 77.7329 27.4916 77.7475 27.5676 77.8034C27.6797 77.8802 27.7464 77.9728 27.7679 78.0815C27.8036 78.1863 27.8206 78.2923 27.8188 78.3995C27.8223 78.4977 27.8238 78.5888 27.8234 78.6728C27.8231 78.7568 27.8473 78.8189 27.8962 78.8592C29.3486 79.6977 30.8573 80.5327 32.4221 81.3639C32.4492 81.3796 32.5187 81.4257 32.6308 81.5025C32.7481 81.5702 32.8266 81.6216 32.8665 81.6566C32.8321 81.8412 32.7032 81.9292 32.4797 81.9204C32.2704 81.9079 31.9949 81.833 31.6531 81.6958C31.3204 81.5638 30.9503 81.3923 30.543 81.1812C30.1356 80.97 29.7309 80.7544 29.3288 80.5342C28.9357 80.3193 28.558 80.1193 28.1957 79.9342C27.8425 79.7543 27.5563 79.6252 27.337 79.5467C26.994 79.9741 26.6617 80.4558 26.3402 80.9919C26.0187 81.5279 25.6957 82.0873 25.3714 82.6698C25.0561 83.2576 24.7447 83.8596 24.437 84.4758C24.1293 85.092 23.8224 85.6966 23.5161 86.2896C23.2188 86.8878 22.9185 87.4601 22.615 88.0066C22.3115 88.5531 22.0063 89.0504 21.6994 89.4987C21.5869 89.8186 21.4634 89.9699 21.3291 89.9525C21.2091 89.9313 21.0177 89.8148 20.7551 89.603C20.8965 89.1915 21.1002 88.7137 21.3662 88.1696C21.6374 87.6166 21.941 87.0281 22.2772 86.4042C22.6185 85.7714 22.9793 85.1257 23.3595 84.4671C23.7449 83.7996 24.118 83.1429 24.4787 82.4972C24.8395 81.8515 25.1749 81.2393 25.485 80.6606C25.8093 80.078 26.0765 79.5527 26.2866 79.0846ZM33.4484 81.9926C33.5119 81.9451 33.5947 81.9267 33.6967 81.9375C33.8078 81.9535 33.9084 81.9875 33.9986 82.0396C34.0978 82.0969 34.1679 82.1734 34.2088 82.2692C34.255 82.356 34.2558 82.4587 34.2113 82.5774L33.8628 83.3685C34.0551 83.4314 34.2997 83.4764 34.5968 83.5036C34.899 83.5217 35.2348 83.5652 35.604 83.634C35.9822 83.7081 36.3861 83.821 36.8157 83.9728C37.2453 84.1246 37.6835 84.3655 38.1304 84.6957C38.7868 85.2671 39.2246 85.7484 39.4437 86.1396C39.6629 86.5308 39.7113 86.8533 39.5887 87.1073C39.4803 87.3575 39.2326 87.5573 38.8457 87.7068C38.4729 87.8524 38.0209 87.9583 37.4895 88.0244C36.9582 88.0905 36.3792 88.1351 35.7524 88.1581C35.1257 88.1812 34.5132 88.2004 33.9149 88.2158C33.3308 88.2274 32.7791 88.2457 32.2596 88.2705C31.7543 88.2915 31.3496 88.3465 31.0456 88.4356L35.1888 95.9156C35.1055 96.0599 34.9661 96.1659 34.7707 96.2335C34.5805 96.2921 34.414 96.2681 34.271 96.1615L30.2879 89.2792L27.6942 93.7717C27.5338 93.7994 27.4053 93.8033 27.3085 93.7835C27.2207 93.7689 27.1568 93.7441 27.1169 93.709C27.077 93.674 27.052 93.6235 27.042 93.5575C27.0268 93.5006 27.0186 93.4418 27.0176 93.3811L33.4484 81.9926ZM33.2769 84.3834C33.1547 84.5534 33.0162 84.7621 32.8613 85.0095C32.7065 85.2568 32.5457 85.5249 32.379 85.8135C32.2176 86.0932 32.0561 86.3729 31.8947 86.6525C31.7384 86.9231 31.5978 87.1667 31.4728 87.3832C31.5439 87.3642 31.7306 87.3637 32.0329 87.3818C32.3494 87.3962 32.7311 87.4121 33.1781 87.4296C33.625 87.4471 34.105 87.4595 34.6179 87.467C35.145 87.4706 35.6522 87.4567 36.1394 87.4253C36.6267 87.3939 37.0662 87.3409 37.458 87.2665C37.8641 87.1882 38.1605 87.0706 38.3472 86.9138C38.543 86.7622 38.604 86.5629 38.5301 86.3158C38.4705 86.0648 38.2232 85.7536 37.7881 85.3822C37.5279 85.2079 37.2025 85.032 36.8118 84.8546C36.4301 84.6823 36.0257 84.539 35.5985 84.4247C35.1856 84.3066 34.7744 84.2376 34.3649 84.2177C33.9554 84.1978 33.5927 84.253 33.2769 84.3834ZM41.0441 95.399L40.0347 87.4911C40.1024 87.3738 40.2176 87.3201 40.3803 87.3299C40.5483 87.3306 40.6819 87.3596 40.7811 87.4169L41.949 94.5503C42.0268 94.499 42.1837 94.373 42.4197 94.1725C42.6648 93.9772 42.952 93.7401 43.2815 93.4612C43.6109 93.1823 43.9675 92.8771 44.3515 92.5454C44.7406 92.2048 45.1181 91.8634 45.484 91.5213C45.8589 91.1845 46.2001 90.8643 46.5077 90.5608C46.8205 90.2482 47.0723 89.9786 47.2632 89.7521C47.3629 89.7254 47.4435 89.7419 47.5053 89.8016C47.5761 89.8665 47.6274 89.9443 47.6593 90.0349C47.7002 90.1306 47.7198 90.2322 47.718 90.3394C47.7215 90.4376 47.7075 90.5138 47.6763 90.5679C46.8137 91.3328 46.084 91.982 45.4873 92.5156C44.8906 93.0491 44.3873 93.5043 43.9773 93.881C43.5725 94.2487 43.2443 94.5464 42.9927 94.774C42.75 95.0067 42.5469 95.2022 42.3834 95.3604C42.2289 95.5238 42.0946 95.6628 41.9804 95.7772C41.8714 95.8827 41.7527 95.9946 41.6242 96.1129C41.5048 96.2364 41.3562 96.3791 41.1785 96.5411C41.0098 96.7084 40.7776 96.9231 40.4818 97.1853C40.1861 97.4476 39.8093 97.7773 39.3514 98.1745C38.8987 98.5627 38.3352 99.0493 37.6607 99.6341C37.5254 99.556 37.3856 99.4753 37.2412 99.3919C37.1059 99.3138 37.0773 99.2071 37.1555 99.0718L41.0441 95.399ZM51.0412 106.584C51.0842 106.488 51.2933 106.386 51.6685 106.278C52.0437 106.17 52.5133 106.044 53.0772 105.901C53.6412 105.757 54.2654 105.582 54.9498 105.376C55.6484 105.166 56.3382 104.909 57.0192 104.604C57.7054 104.291 58.346 103.921 58.9409 103.495C59.5501 103.064 60.0472 102.558 60.4322 101.974C60.5937 101.694 60.6602 101.402 60.6319 101.097C60.6087 100.783 60.5248 100.47 60.3802 100.158C60.2498 99.8419 60.0678 99.5323 59.834 99.229C59.6002 98.9256 59.3533 98.6448 59.0935 98.3865C58.8479 98.1244 58.5957 97.8946 58.3368 97.697C58.0832 97.4905 57.8617 97.3325 57.6723 97.2231C57.6272 97.1971 57.5569 97.1625 57.4615 97.1195C57.3803 97.0726 57.2777 97.0314 57.1539 96.996C57.0352 96.9516 56.9068 96.9135 56.7687 96.8819C56.6448 96.8464 56.5222 96.8298 56.4007 96.8318L52.2731 105.418C52.261 105.544 52.194 105.649 52.0721 105.735C51.9593 105.827 51.8298 105.884 51.6837 105.908C51.5467 105.937 51.4214 105.925 51.3079 105.871C51.1997 105.809 51.1504 105.696 51.1602 105.534L55.3643 96.7206C55.3268 96.723 55.2571 96.7188 55.1551 96.708C55.0621 96.7024 54.962 96.6988 54.8547 96.697C54.7527 96.6862 54.6526 96.6825 54.5544 96.686C54.4614 96.6804 54.3987 96.6743 54.3665 96.6677C54.3574 96.6625 54.3368 96.6566 54.3045 96.65C54.2865 96.6396 54.2729 96.6317 54.2639 96.6265C54.2098 96.5953 54.1545 96.5453 54.0979 96.4766C54.0504 96.413 54.0527 96.3362 54.1048 96.246C54.1933 96.0926 54.2952 95.9891 54.4104 95.9353C54.5399 95.8777 54.6777 95.837 54.8238 95.8131C54.9789 95.7944 55.1359 95.7828 55.2949 95.7784C55.468 95.7701 55.6407 95.7315 55.8129 95.6625C55.994 95.5987 56.1709 95.4903 56.3434 95.3373C56.5249 95.1895 56.7016 94.9668 56.8735 94.6691C57.072 94.7837 57.1729 94.8901 57.1764 94.9883C57.1888 95.0917 57.1709 95.1956 57.1227 95.3001C57.0796 95.3955 57.0384 95.498 56.9992 95.6077C56.9652 95.7083 56.9983 95.8176 57.0985 95.9356C57.3938 96.07 57.7418 96.2589 58.1425 96.5023C58.5433 96.7457 58.9412 97.0356 59.3364 97.372C59.7315 97.7084 60.1014 98.0783 60.4458 98.4817C60.7955 98.876 61.0688 99.2984 61.2658 99.7489C61.4628 100.199 61.5563 100.662 61.5465 101.138C61.5418 101.604 61.3879 102.069 61.0848 102.531C60.5856 103.229 59.982 103.837 59.2743 104.355C58.5717 104.863 57.7939 105.304 56.9408 105.678C56.0967 106.056 55.1837 106.377 54.2019 106.64C53.2253 106.894 52.2107 107.12 51.1581 107.319C51.149 107.313 51.131 107.303 51.1039 107.287C51.0807 107.286 51.0645 107.283 51.0555 107.277C50.9653 107.225 50.9251 107.118 50.9349 106.955C50.9536 106.798 50.9891 106.674 51.0412 106.584ZM63.7864 99.5082C63.8499 99.4607 63.9327 99.4423 64.0347 99.4531C64.1457 99.4691 64.2463 99.5031 64.3366 99.5552C64.4358 99.6125 64.5059 99.6891 64.5468 99.7849C64.5929 99.8716 64.5937 99.9743 64.5493 100.093L64.2008 100.884C64.393 100.947 64.6377 100.992 64.9347 101.019C65.237 101.037 65.5727 101.081 65.9419 101.15C66.3202 101.224 66.7241 101.337 67.1536 101.488C67.5832 101.64 68.0214 101.881 68.4683 102.211C69.1247 102.783 69.5625 103.264 69.7817 103.655C70.0009 104.046 70.0492 104.369 69.9266 104.623C69.8183 104.873 69.5706 105.073 69.1836 105.222C68.8109 105.368 68.3588 105.474 67.8275 105.54C67.2962 105.606 66.7171 105.651 66.0904 105.674C65.4637 105.697 64.8511 105.716 64.2529 105.731C63.6688 105.743 63.117 105.761 62.5975 105.786C62.0922 105.807 61.6876 105.862 61.3835 105.951L65.5268 113.431C65.4434 113.576 65.3041 113.682 65.1087 113.749C64.9185 113.808 64.7519 113.784 64.609 113.677L60.6259 106.795L58.0321 111.287C57.8718 111.315 57.7432 111.319 57.6464 111.299C57.5586 111.285 57.4948 111.26 57.4549 111.225C57.415 111.19 57.39 111.139 57.38 111.073C57.3647 111.016 57.3566 110.957 57.3555 110.897L63.7864 99.5082ZM63.6149 101.899C63.4926 102.069 63.3541 102.278 63.1993 102.525C63.0444 102.772 62.8836 103.04 62.717 103.329C62.5555 103.609 62.3941 103.888 62.2326 104.168C62.0764 104.439 61.9357 104.682 61.8107 104.899C61.8819 104.88 62.0686 104.879 62.3708 104.897C62.6873 104.912 63.069 104.928 63.516 104.945C63.963 104.963 64.4429 104.975 64.9558 104.983C65.483 104.986 65.9902 104.972 66.4774 104.941C66.9646 104.91 67.4042 104.857 67.796 104.782C68.202 104.704 68.4984 104.586 68.6852 104.429C68.881 104.278 68.9419 104.078 68.8681 103.831C68.8085 103.58 68.5611 103.269 68.1261 102.898C67.8659 102.724 67.5404 102.548 67.1497 102.37C66.768 102.198 66.3636 102.055 65.9365 101.94C65.5235 101.822 65.1123 101.753 64.7028 101.733C64.2934 101.713 63.9307 101.769 63.6149 101.899ZM64.6085 115.084C64.7915 114.913 65.0886 114.628 65.5 114.228C65.9203 113.833 66.4985 113.259 67.2344 112.505C67.9756 111.742 68.9044 110.769 70.0208 109.585C71.1463 108.406 72.5081 106.943 74.1064 105.196C74.2126 105.137 74.3232 105.123 74.438 105.153C74.5581 105.174 74.6625 105.222 74.7513 105.298C74.8454 105.364 74.9083 105.442 74.9402 105.533C74.9863 105.62 74.9867 105.692 74.9412 105.75L73.8647 113.771L75.4871 114.148C75.6044 114.216 75.6854 114.305 75.7302 114.415C75.7749 114.525 75.7757 114.627 75.7327 114.723C75.6896 114.818 75.6007 114.899 75.4661 114.966C75.3366 115.023 75.1634 115.032 74.9466 114.991C74.8588 114.976 74.7458 114.953 74.6077 114.921C74.4748 114.881 74.3419 114.84 74.209 114.799C74.0761 114.759 73.9612 114.729 73.8644 114.709C73.7676 114.689 73.7114 114.693 73.6958 114.72L72.8853 119.592C72.8412 119.627 72.7893 119.675 72.7296 119.737C72.6751 119.79 72.6104 119.818 72.5354 119.823C72.4552 119.837 72.3662 119.804 72.2684 119.723C72.1654 119.652 72.0485 119.5 71.9177 119.268L72.6584 114.391C72.4377 114.336 72.1719 114.255 71.861 114.147C71.5553 114.031 71.2335 113.911 70.8955 113.788C70.5628 113.657 70.2177 113.535 69.8603 113.425C69.5171 113.311 69.1861 113.229 68.8672 113.177C68.5483 113.125 68.2569 113.119 67.9932 113.159C67.7346 113.19 67.53 113.295 67.3794 113.472C67.2884 113.588 67.1325 113.775 66.9117 114.032C66.7 114.295 66.4882 114.558 66.2764 114.82C66.0244 115.132 65.7477 115.465 65.4464 115.821C65.1902 115.889 65.0101 115.857 64.9061 115.725C64.811 115.598 64.7118 115.384 64.6085 115.084ZM73.8018 107.005L68.8909 112.198C69.0755 112.233 69.3214 112.296 69.6285 112.389C69.9356 112.482 70.2678 112.584 70.6252 112.694C70.9826 112.804 71.34 112.914 71.6974 113.025C72.0638 113.14 72.4013 113.233 72.7098 113.302L73.8018 107.005ZM78.0533 108.016C78.1314 107.881 78.2087 107.799 78.285 107.771C78.3756 107.739 78.4596 107.739 78.537 107.772C78.6286 107.801 78.7098 107.848 78.7805 107.913C78.8603 107.983 78.9285 108.052 78.985 108.121L75.3375 119.907C75.3944 119.892 75.5655 119.762 75.8508 119.518C76.1452 119.279 76.4974 118.971 76.9073 118.595C77.3315 118.214 77.7979 117.792 78.3064 117.327C78.815 116.863 79.319 116.397 79.8185 115.927C80.3323 115.454 80.8143 115.005 81.2645 114.579C81.7148 114.153 82.0982 113.791 82.4148 113.493C82.556 113.394 82.69 113.339 82.8167 113.328C82.9576 113.313 83.0821 113.337 83.1904 113.399C83.2986 113.462 83.3868 113.549 83.4547 113.66C83.5227 113.772 83.557 113.9 83.5577 114.044L81.7213 123.413L89.6105 114.436C89.7024 114.381 89.7975 114.351 89.8957 114.348C90.0082 114.341 90.1005 114.358 90.1727 114.4C90.2448 114.441 90.2916 114.516 90.3131 114.625C90.3488 114.73 90.3353 114.878 90.2724 115.071L81.7355 124.576C81.6967 124.601 81.6229 124.625 81.5143 124.646C81.4199 124.664 81.3179 124.653 81.2082 124.614C81.1076 124.58 81.0188 124.505 80.9418 124.388C80.8648 124.271 80.8404 124.095 80.8685 123.858L82.5185 114.563L75.4079 121.067C75.2642 121.128 75.124 121.131 74.9873 121.076C74.8454 121.031 74.7236 120.96 74.6219 120.865C74.5203 120.771 74.4374 120.675 74.3732 120.577C74.3142 120.471 74.2881 120.402 74.2947 120.37L78.0533 108.016ZM90.9928 115.198C91.0601 115.164 91.1351 115.16 91.2177 115.183C91.3145 115.203 91.4009 115.241 91.4769 115.297C91.5528 115.353 91.6165 115.42 91.6678 115.497C91.7282 115.58 91.7589 115.652 91.7599 115.713L85.5566 126.926C85.4941 127.034 85.4228 127.095 85.3426 127.109C85.2624 127.123 85.1818 127.107 85.1006 127.06C85.0232 127.027 84.9517 126.974 84.8862 126.9C84.8206 126.826 84.7764 126.746 84.7535 126.661L90.9928 115.198ZM92.9106 116.251C93.0932 116.164 93.2339 116.191 93.3328 116.332C93.4459 116.47 93.5246 116.635 93.5689 116.829C93.6275 117.02 93.6565 117.199 93.6557 117.367C93.6602 117.526 93.647 117.59 93.6161 117.56L93.6838 128.912C93.7889 128.792 93.9365 128.589 94.1264 128.301C94.3306 128.01 94.5543 127.664 94.7977 127.264C95.0463 126.854 95.3068 126.403 95.579 125.91C95.8602 125.423 96.1325 124.931 96.3957 124.433C96.6679 123.941 96.9259 123.453 97.1697 122.968C97.4134 122.483 97.6241 122.045 97.8015 121.655C97.9842 121.255 98.1233 120.92 98.2188 120.651C98.3195 120.372 98.3539 120.187 98.322 120.097C98.4054 119.953 98.5106 119.833 98.6376 119.738C98.7698 119.634 98.9172 119.629 99.0795 119.722C99.2329 119.811 99.3071 119.974 99.3022 120.212C99.2972 120.449 99.2567 120.697 99.1807 120.953C99.1046 121.21 99.0131 121.452 98.9061 121.679C98.8082 121.911 98.741 122.059 98.7045 122.122C98.6094 122.308 98.4472 122.599 98.218 122.996C98.0031 123.389 97.7498 123.838 97.4581 124.343C97.1755 124.854 96.8727 125.388 96.5498 125.948C96.2411 126.503 95.9409 127.034 95.6493 127.539C95.3666 128.049 95.1107 128.503 94.8815 128.9C94.6524 129.297 94.4902 129.588 94.3951 129.774C94.2583 130.031 94.1622 130.271 94.107 130.491C94.0608 130.717 93.9673 130.952 93.8267 131.196C93.7121 131.394 93.5495 131.499 93.3388 131.509C93.1372 131.525 92.9462 131.481 92.7658 131.377C92.6665 131.32 92.5841 131.254 92.5186 131.18C92.462 131.111 92.4294 131.032 92.4208 130.943C92.4121 130.854 92.432 130.757 92.4802 130.653C92.5427 130.544 92.6408 130.427 92.7744 130.299C92.7214 130.016 92.6962 129.581 92.6989 128.993C92.7067 128.396 92.7187 127.729 92.7349 126.993C92.7653 126.253 92.7933 125.475 92.8189 124.66C92.8536 123.85 92.8764 123.081 92.8873 122.354C92.9126 121.623 92.9142 120.974 92.8921 120.408C92.8701 119.842 92.8222 119.435 92.7483 119.188C92.3647 119.749 91.9579 120.422 91.5281 121.208C91.1034 121.985 90.6792 122.793 90.2556 123.631C89.8372 124.46 89.4291 125.271 89.0315 126.064C88.6429 126.862 88.2794 127.554 87.9408 128.14C87.8315 128.33 87.7096 128.416 87.5753 128.398C87.4358 128.39 87.3153 128.338 87.2136 128.243C87.112 128.149 87.0388 128.046 86.994 127.936C86.9545 127.817 86.9722 127.755 87.0472 127.75L92.9106 116.251ZM102.492 132.969C102.048 133.133 101.542 133.28 100.974 133.41C100.406 133.539 99.8297 133.621 99.2443 133.656C98.6588 133.691 98.0956 133.666 97.5546 133.582C97.0136 133.499 96.5472 133.338 96.1555 133.099C95.769 132.852 95.4766 132.515 95.2782 132.088C95.0941 131.657 95.0687 131.107 95.2022 130.438C95.3141 129.973 95.5372 129.483 95.8716 128.966C96.215 128.455 96.6281 127.948 97.111 127.445C97.6081 126.938 98.1574 126.455 98.759 125.996C99.3747 125.534 100.013 125.127 100.673 124.774C101.343 124.427 102.022 124.146 102.712 123.931C103.416 123.711 104.09 123.596 104.735 123.583C105.394 123.567 106.016 123.667 106.6 123.884C107.19 124.092 107.709 124.452 108.159 124.965C108.231 125.006 108.266 125.05 108.263 125.097C108.266 125.134 108.247 125.177 108.207 125.226C108.166 125.275 108.109 125.333 108.035 125.398C107.97 125.469 107.907 125.558 107.844 125.667C107.238 125.196 106.574 124.897 105.854 124.77C105.139 124.634 104.402 124.629 103.643 124.756C102.893 124.889 102.145 125.131 101.401 125.483C100.656 125.835 99.9542 126.259 99.2944 126.757C98.6435 127.259 98.057 127.816 97.5349 128.429C97.018 129.033 96.605 129.654 96.2959 130.294C96.0299 130.838 95.9776 131.283 96.1388 131.628C96.3053 131.965 96.5981 132.218 97.0173 132.388C97.4506 132.554 97.9703 132.644 98.5762 132.657C99.1873 132.661 99.8116 132.6 100.449 132.475C101.101 132.346 101.721 132.157 102.31 131.908C102.908 131.664 103.402 131.371 103.791 131.031L101.355 129.624C101.329 129.357 101.399 129.205 101.565 129.168C101.73 129.131 101.954 129.17 102.237 129.285C102.533 129.396 102.867 129.559 103.237 129.772C103.606 129.986 103.98 130.214 104.358 130.456C104.49 130.496 104.684 130.536 104.938 130.574C105.198 130.604 105.438 130.646 105.659 130.702C105.88 130.757 106.036 130.829 106.129 130.919C106.23 131.014 106.186 131.132 105.995 131.275C105.976 131.288 105.926 131.301 105.846 131.315C105.771 131.32 105.684 131.324 105.586 131.327C105.502 131.327 105.418 131.327 105.334 131.326C105.259 131.331 105.21 131.333 105.187 131.331C104.726 131.63 104.286 132.038 103.868 132.554C103.449 133.071 103.058 133.633 102.695 134.241C102.332 134.849 101.999 135.469 101.695 136.099C101.4 136.735 101.148 137.317 100.939 137.846L100.323 137.725C100.311 137.537 100.385 137.231 100.546 136.807C100.716 136.388 100.918 135.933 101.153 135.443C101.388 134.954 101.628 134.485 101.874 134.038C102.126 133.581 102.332 133.225 102.492 132.969ZM14.6085 112.234C14.6488 112.185 14.8142 112.19 15.1046 112.249C15.4041 112.314 15.77 112.399 16.2024 112.504C16.6399 112.6 17.1259 112.707 17.6603 112.823C18.1999 112.93 18.7319 113.008 19.2562 113.059C19.7896 113.114 20.2883 113.125 20.7523 113.092C21.2215 113.05 21.6135 112.934 21.9283 112.743C22.0116 112.599 21.9775 112.429 21.8259 112.233C21.6743 112.037 21.4518 111.818 21.1582 111.577C20.8647 111.335 20.5209 111.076 20.1268 110.801C19.7326 110.525 19.3328 110.228 18.9272 109.91C18.5307 109.597 18.1535 109.271 17.7959 108.932C17.4382 108.593 17.1464 108.244 16.9206 107.885C16.7 107.517 16.566 107.145 16.5186 106.769C16.4764 106.384 16.5699 105.993 16.799 105.596C17.023 105.208 17.3353 104.865 17.7358 104.567C18.1506 104.265 18.6117 104.008 19.1192 103.796C19.6266 103.584 20.1616 103.417 20.7242 103.297C21.2958 103.182 21.8574 103.116 22.4092 103.097C22.961 103.079 23.477 103.112 23.9573 103.197C24.4376 103.282 24.8491 103.423 25.1919 103.621C25.2821 103.673 25.3768 103.728 25.4761 103.785C25.5805 103.834 25.6636 103.888 25.7253 103.947C25.7961 104.012 25.8358 104.089 25.8445 104.179C25.8674 104.264 25.8449 104.365 25.7772 104.483C25.6106 104.771 25.396 104.924 25.1337 104.941C24.8713 104.958 24.6048 104.888 24.3342 104.732L23.8617 104.207C23.6362 104.076 23.34 103.996 22.9732 103.964C22.6207 103.929 22.2349 103.941 21.816 104C21.4024 104.05 20.9724 104.138 20.526 104.265C20.094 104.389 19.6811 104.541 19.2875 104.723C18.9082 104.901 18.5623 105.104 18.2499 105.333C17.9517 105.558 17.7323 105.792 17.5917 106.035C17.4146 106.342 17.368 106.652 17.4519 106.965C17.541 107.269 17.714 107.573 17.9711 107.878C18.2281 108.183 18.5459 108.487 18.9244 108.789C19.3172 109.088 19.717 109.385 20.124 109.68C20.531 109.976 20.9263 110.27 21.31 110.564C21.7028 110.863 22.0329 111.155 22.3004 111.442C22.573 111.72 22.7591 112.002 22.8586 112.288C22.9634 112.565 22.935 112.843 22.7735 113.123C22.6173 113.393 22.3528 113.601 21.98 113.747C21.6073 113.893 21.172 113.99 20.6744 114.04C20.1819 114.08 19.6432 114.076 19.0581 114.027C18.4873 113.974 17.9275 113.891 17.3789 113.779C16.8355 113.658 16.3193 113.51 15.8304 113.336C15.3505 113.167 14.9553 112.987 14.6448 112.796C14.5546 112.744 14.4961 112.668 14.4695 112.568C14.4428 112.469 14.4891 112.357 14.6085 112.234ZM23.4549 113.318C24.1021 112.176 24.8157 111.21 25.5957 110.422C26.381 109.624 27.1726 108.993 27.9705 108.527C28.7685 108.062 29.5335 107.758 30.2654 107.615C31.0116 107.469 31.6621 107.477 32.2169 107.641C32.7718 107.805 33.2058 108.116 33.519 108.573C33.8322 109.031 33.9575 109.626 33.8948 110.36C33.8415 111.015 33.662 111.711 33.3564 112.449C33.056 113.177 32.6633 113.889 32.1782 114.583C31.7075 115.274 31.1652 115.911 30.5515 116.495C29.9377 117.078 29.2838 117.555 28.5896 117.924C27.9096 118.289 27.2122 118.518 26.4973 118.61C25.7876 118.694 25.0943 118.582 24.4173 118.276C23.8965 118.011 23.5208 117.662 23.2901 117.228C23.0647 116.785 22.9337 116.324 22.8971 115.846C22.8747 115.364 22.9168 114.895 23.0235 114.44C23.1444 113.98 23.2882 113.606 23.4549 113.318ZM30.1048 108.424C29.8785 108.462 29.5795 108.584 29.2078 108.791C28.8361 108.997 28.4324 109.269 27.9967 109.607C27.5663 109.936 27.126 110.313 26.6758 110.739C26.2346 111.17 25.8178 111.621 25.4255 112.092C25.0422 112.568 24.7074 113.054 24.4209 113.551C24.1435 114.052 23.9552 114.545 23.8562 115.029C23.7623 115.504 23.7771 115.957 23.9005 116.389C24.0291 116.812 24.3097 117.191 24.7424 117.525C25.0772 117.778 25.5057 117.869 26.028 117.798C26.5593 117.732 27.1164 117.548 27.6991 117.247C28.2819 116.946 28.8605 116.559 29.435 116.085C30.0237 115.607 30.5467 115.097 31.0039 114.555C31.4066 114.066 31.7564 113.564 32.0533 113.05C32.3554 112.526 32.5818 112.02 32.7326 111.529C32.8833 111.039 32.9551 110.581 32.948 110.156C32.9408 109.731 32.8365 109.37 32.635 109.073C32.4334 108.777 32.1217 108.567 31.6998 108.443C31.292 108.316 30.7604 108.31 30.1048 108.424ZM42.5966 115.601C42.5709 115.562 42.4472 115.641 42.2254 115.837C42.0126 116.039 41.7356 116.3 41.3943 116.62C41.0531 116.941 40.6697 117.303 40.2441 117.706C39.8276 118.115 39.4001 118.512 38.9616 118.897C38.5322 119.286 38.1166 119.641 37.7146 119.963C37.3126 120.284 36.9601 120.519 36.6571 120.669C36.3632 120.824 36.1362 120.874 35.9762 120.817C35.8305 120.757 35.7875 120.54 35.8473 120.166C35.828 119.866 35.8375 119.474 35.8758 118.991C35.9141 118.508 35.9572 117.986 36.0049 117.424C36.0616 116.867 36.1127 116.289 36.158 115.69C36.2175 115.087 36.2517 114.517 36.2605 113.981C36.2694 113.445 36.2515 112.966 36.2069 112.543C36.1674 112.111 36.0824 111.779 35.9516 111.548C35.5454 112.251 35.1406 113.046 34.7374 113.932C34.3343 114.818 33.9278 115.72 33.518 116.638C33.1224 117.552 32.7231 118.452 32.3199 119.338C31.9167 120.224 31.5094 121.023 31.0979 121.736C31.0909 121.852 31.0388 121.942 30.9417 122.006C30.8535 122.076 30.7558 122.109 30.6486 122.108C30.5413 122.106 30.4414 122.06 30.3488 121.971C30.2561 121.881 30.2038 121.743 30.1917 121.555C30.5862 120.58 31.0273 119.608 31.5148 118.639C32.0024 117.669 32.4925 116.695 32.9852 115.717C33.478 114.738 33.9546 113.756 34.4151 112.771C34.8846 111.792 35.3057 110.802 35.6784 109.802C35.7735 109.616 35.8702 109.522 35.9684 109.518C36.0666 109.515 36.1698 109.545 36.2781 109.607C36.6163 109.959 36.8567 110.386 36.9991 110.889C37.1468 111.384 37.2291 111.918 37.2459 112.493C37.2769 113.064 37.2575 113.661 37.1875 114.282C37.1266 114.908 37.0612 115.532 36.9912 116.153C36.9265 116.765 36.8721 117.359 36.8282 117.935C36.7895 118.502 36.8072 119.024 36.8813 119.5C36.9174 119.521 36.9568 119.525 36.9995 119.514C37.0564 119.499 37.151 119.439 37.2833 119.335C37.4207 119.222 37.6224 119.049 37.8883 118.818C38.1542 118.587 38.5168 118.261 38.976 117.84C39.4443 117.425 40.0287 116.902 40.7292 116.272C41.4349 115.633 42.2911 114.859 43.2978 113.949C43.3471 113.905 43.4182 113.886 43.5112 113.891C43.6094 113.888 43.6991 113.91 43.7803 113.957C43.8705 114.009 43.9335 114.087 43.9692 114.192C44.0101 114.288 44.0025 114.416 43.9462 114.576C43.5572 115.458 43.1306 116.384 42.6663 117.355C42.2163 118.322 41.7577 119.314 41.2906 120.331C40.8235 121.349 40.3622 122.387 39.9065 123.447C39.4561 124.498 39.0405 125.552 38.6599 126.607C38.5689 126.723 38.4788 126.785 38.3896 126.793C38.2952 126.811 38.2055 126.789 38.1205 126.728C38.0355 126.667 37.9545 126.578 37.8775 126.462C37.8043 126.359 37.7435 126.246 37.6949 126.122L42.5966 115.601ZM39.7149 126.873C40.2149 126.007 40.7389 125.131 41.2868 124.244C41.8437 123.363 42.3806 122.464 42.8977 121.548C43.4289 120.628 43.9189 119.696 44.3675 118.752C44.8162 117.808 45.1913 116.846 45.4928 115.865C45.5189 115.82 45.5682 115.777 45.6407 115.734C45.7185 115.683 45.8 115.646 45.8854 115.623C45.9708 115.6 46.0529 115.593 46.1316 115.603C46.2246 115.608 46.2994 115.645 46.3559 115.714C46.4472 115.827 46.4898 115.972 46.4839 116.149C46.4921 116.322 46.47 116.496 46.4176 116.67C46.3741 116.849 46.3153 117.014 46.241 117.163C46.1809 117.309 46.1326 117.414 46.0962 117.477L52.0558 119.185C52.1266 119.25 52.1611 119.336 52.1593 119.444C52.1718 119.547 52.1449 119.646 52.0786 119.74C52.0265 119.83 51.9428 119.902 51.8276 119.956C51.7214 120.015 51.5992 120.028 51.4611 119.997L45.5279 118.43C45.1894 119.016 44.867 119.606 44.5607 120.199C44.2635 120.797 43.9655 121.407 43.6669 122.028L48.1865 122.887C48.1865 122.887 48.2292 122.876 48.3145 122.853C48.3999 122.83 48.4891 122.822 48.5821 122.827C48.6841 122.838 48.7731 122.871 48.8491 122.927C48.9341 122.988 48.9808 123.105 48.989 123.279C48.8849 123.459 48.6803 123.563 48.3752 123.592C48.0754 123.611 47.7266 123.59 47.3289 123.529C46.9403 123.473 46.5227 123.394 46.0761 123.293C45.6437 123.187 45.2313 123.1 44.8388 123.029C44.4554 122.964 44.1189 122.933 43.8295 122.934C43.5453 122.926 43.3641 122.99 43.286 123.125L41.1366 126.629C41.225 126.789 41.4034 126.928 41.6716 127.046C41.954 127.161 42.2792 127.265 42.647 127.357C43.0148 127.449 43.4111 127.534 43.8358 127.61C44.2658 127.678 44.677 127.747 45.0694 127.817C45.4619 127.888 45.8195 127.956 46.1422 128.022C46.474 128.093 46.7281 128.174 46.9047 128.264C46.9807 128.32 47.0347 128.393 47.0666 128.483C47.1037 128.565 47.1175 128.645 47.1081 128.724C47.0987 128.803 47.0597 128.87 46.9909 128.927C46.9364 128.98 46.8466 129 46.7213 128.988C46.2809 128.938 45.758 128.864 45.1524 128.767C44.5469 128.67 43.9259 128.559 43.2895 128.432C42.6673 128.301 42.0691 128.16 41.4948 128.009C40.9257 127.849 40.462 127.683 40.1036 127.512C39.9877 127.421 39.8996 127.334 39.8392 127.252C39.7931 127.165 39.7516 127.039 39.7149 126.873ZM56.9174 123.327C56.5917 123.079 56.2424 122.872 55.8698 122.704C55.5023 122.528 55.1297 122.361 54.7518 122.203C54.383 122.051 54.0096 121.895 53.6317 121.737C53.2591 121.57 52.9047 121.371 52.5685 121.141C52.4744 121.075 52.3837 120.993 52.2963 120.894C52.2179 120.801 52.232 120.682 52.3386 120.539C52.4049 120.445 52.5118 120.375 52.6593 120.328C52.8068 120.281 52.9276 120.29 53.0216 120.356L57.2352 122.464C57.2703 122.425 57.3248 122.372 57.3987 122.306C57.4779 122.232 57.5635 122.167 57.6554 122.112C57.7474 122.056 57.8406 122.02 57.935 122.002C58.0346 121.976 58.1224 121.99 58.1984 122.046C58.3104 122.123 58.3772 122.216 58.3987 122.324C58.4344 122.429 58.4514 122.535 58.4496 122.642C58.4531 122.741 58.4546 122.832 58.4542 122.916C58.4538 123 58.4781 123.062 58.527 123.102C59.9794 123.941 61.488 124.775 63.0529 125.607C63.0799 125.622 63.1495 125.669 63.2616 125.745C63.3788 125.813 63.4574 125.864 63.4973 125.899C63.4629 126.084 63.334 126.172 63.1105 126.163C62.9012 126.151 62.6257 126.076 62.2839 125.939C61.9512 125.807 61.5811 125.635 61.1738 125.424C60.7664 125.213 60.3617 124.997 59.9595 124.777C59.5664 124.562 59.1888 124.362 58.8265 124.177C58.4733 123.997 58.187 123.868 57.9677 123.789C57.6247 124.217 57.2925 124.699 56.971 125.235C56.6494 125.771 56.3265 126.33 56.0022 126.913C55.6869 127.5 55.3754 128.102 55.0678 128.719C54.7601 129.335 54.4531 129.939 54.1469 130.532C53.8496 131.131 53.5493 131.703 53.2458 132.249C52.9423 132.796 52.6371 133.293 52.3302 133.742C52.2176 134.061 52.0942 134.213 51.9599 134.195C51.8399 134.174 51.6485 134.058 51.3859 133.846C51.5273 133.434 51.7309 132.957 51.9969 132.412C52.2681 131.859 52.5718 131.271 52.9079 130.647C53.2493 130.014 53.61 129.368 53.9902 128.71C54.3757 128.042 54.7488 127.386 55.1095 126.74C55.4703 126.094 55.8057 125.482 56.1158 124.903C56.4401 124.321 56.7073 123.795 56.9174 123.327ZM66.3092 134.217C66.211 134.22 66.0438 134.208 65.8075 134.179C65.5763 134.142 65.3085 134.096 65.0038 134.04C64.7081 133.99 64.3918 133.933 64.0549 133.871C63.727 133.814 63.4081 133.762 63.0982 133.716C62.8025 133.665 62.532 133.623 62.2867 133.59C62.0556 133.553 61.8883 133.541 61.7849 133.553C61.5548 133.576 61.3367 133.673 61.1305 133.843C60.9295 134.003 60.7328 134.209 60.5405 134.458C60.3534 134.699 60.1713 134.973 59.9942 135.28C59.8223 135.577 59.6621 135.876 59.5134 136.175C59.3648 136.474 59.224 136.759 59.091 137.031C58.967 137.309 58.8575 137.54 58.7623 137.726C58.67 137.865 58.5403 137.964 58.3734 138.024C58.2207 138.081 58.0721 138.067 57.9278 137.984C57.8737 137.952 57.8183 137.902 57.7618 137.834C57.7052 137.765 57.7023 137.697 57.753 137.63L64.0952 126.551C64.1681 126.425 64.2473 126.35 64.3327 126.328C64.4232 126.296 64.5091 126.303 64.5903 126.35C64.6767 126.388 64.7546 126.451 64.824 126.539C64.8934 126.627 64.9485 126.719 64.9894 126.815C64.7693 127.217 64.5108 127.675 64.2139 128.19C63.917 128.704 63.6175 129.222 63.3155 129.746C63.0224 130.274 62.7443 130.787 62.4811 131.285C62.2269 131.787 62.0324 132.228 61.8976 132.608C62.449 132.673 62.9912 132.776 63.5242 132.915C64.0624 133.046 64.5659 133.132 65.0348 133.174C65.5178 133.212 65.9593 133.167 66.3591 133.036C66.7641 132.897 67.1156 132.601 67.4135 132.148C67.5721 131.915 67.7062 131.703 67.8155 131.514C67.9249 131.324 68.0253 131.13 68.1166 130.93C68.2169 130.735 68.3045 130.521 68.3791 130.288C68.4681 130.05 68.5643 129.769 68.6678 129.444C68.772 129.263 68.8732 129.172 68.9714 129.168C69.0838 129.161 69.1987 129.191 69.3159 129.259C69.4422 129.332 69.5187 129.418 69.5454 129.518C69.5811 129.622 69.5839 129.732 69.5536 129.847C69.5376 129.958 69.5003 130.075 69.4416 130.197C69.3829 130.32 69.3249 130.431 69.2676 130.53C69.1881 130.689 69.0591 130.933 68.8806 131.263C68.7022 131.593 68.5002 131.963 68.2749 132.374C68.0547 132.777 67.819 133.206 67.5676 133.662C67.3252 134.124 67.0913 134.56 66.866 134.971C66.6458 135.373 66.4465 135.739 66.268 136.069C66.0896 136.399 65.9561 136.641 65.8675 136.794C65.7672 136.989 65.6258 137.244 65.4436 137.56C65.2613 137.875 65.0712 138.205 64.8732 138.548C64.6753 138.89 64.4781 139.222 64.2816 139.541C64.0903 139.852 63.9354 140.099 63.817 140.283C63.7611 140.359 63.7052 140.435 63.6493 140.511C63.6025 140.592 63.5447 140.661 63.4759 140.718C63.4162 140.78 63.3392 140.819 63.2448 140.837C63.1594 140.86 63.0502 140.851 62.9173 140.81C62.8046 140.589 62.7861 140.392 62.8618 140.219C62.9466 140.051 63.0391 139.87 63.1395 139.676C63.202 139.567 63.3139 139.373 63.4754 139.094C63.6511 138.81 63.8457 138.484 64.0592 138.114C64.2728 137.744 64.4967 137.356 64.7311 136.95C64.9797 136.54 65.2082 136.155 65.4165 135.794C65.6301 135.424 65.8176 135.099 65.979 134.82C66.1457 134.531 66.2558 134.33 66.3092 134.217ZM70.6498 130.011C70.7172 129.978 70.7921 129.973 70.8747 129.996C70.9715 130.016 71.0579 130.054 71.1339 130.11C71.2099 130.166 71.2736 130.233 71.3249 130.31C71.3853 130.393 71.4159 130.465 71.417 130.526L65.2137 141.739C65.1512 141.847 65.0799 141.908 64.9997 141.922C64.9195 141.936 64.8388 141.92 64.7576 141.873C64.6803 141.84 64.6088 141.787 64.5432 141.713C64.4777 141.639 64.4335 141.559 64.4106 141.474L70.6498 130.011ZM72.5677 131.064C72.7503 130.977 72.891 131.004 72.9898 131.145C73.1029 131.283 73.1817 131.449 73.226 131.643C73.2846 131.833 73.3135 132.012 73.3128 132.18C73.3172 132.339 73.304 132.403 73.2732 132.373L73.3408 143.725C73.446 143.605 73.5936 143.402 73.7835 143.115C73.9876 142.823 74.2114 142.478 74.4548 142.077C74.7034 141.667 74.9638 141.216 75.2361 140.724C75.5173 140.236 75.7895 139.744 76.0527 139.247C76.325 138.754 76.583 138.266 76.8267 137.781C77.0705 137.296 77.2811 136.859 77.4586 136.468C77.6412 136.068 77.7803 135.733 77.8759 135.464C77.9766 135.185 78.011 135.001 77.9791 134.91C78.0624 134.766 78.1676 134.646 78.2947 134.551C78.4269 134.447 78.5742 134.442 78.7366 134.535C78.89 134.624 78.9642 134.787 78.9592 135.025C78.9543 135.263 78.9138 135.51 78.8377 135.767C78.7616 136.023 78.6701 136.265 78.5632 136.492C78.4652 136.724 78.398 136.872 78.3616 136.935C78.2664 137.121 78.1043 137.412 77.8751 137.809C77.6602 138.202 77.4069 138.651 77.1152 139.156C76.8326 139.667 76.5298 140.202 76.2069 140.761C75.8982 141.316 75.598 141.847 75.3063 142.352C75.0237 142.862 74.7678 143.316 74.5386 143.713C74.3094 144.11 74.1473 144.401 74.0521 144.587C73.9153 144.845 73.8193 145.084 73.764 145.304C73.7178 145.53 73.6244 145.765 73.4838 146.009C73.3692 146.207 73.2066 146.312 72.9959 146.322C72.7943 146.338 72.6033 146.294 72.4228 146.19C72.3236 146.133 72.2412 146.067 72.1756 145.993C72.1191 145.924 72.0865 145.845 72.0779 145.756C72.0692 145.667 72.089 145.57 72.1373 145.466C72.1998 145.358 72.2979 145.24 72.4315 145.112C72.3785 144.829 72.3533 144.394 72.3559 143.806C72.3638 143.209 72.3758 142.542 72.392 141.806C72.4224 141.066 72.4504 140.288 72.476 139.473C72.5106 138.663 72.5334 137.894 72.5444 137.167C72.5696 136.436 72.5712 135.787 72.5492 135.221C72.5272 134.655 72.4792 134.249 72.4054 134.001C72.0218 134.562 71.615 135.235 71.1851 136.021C70.7605 136.798 70.3363 137.606 69.9127 138.444C69.4942 139.273 69.0862 140.084 68.6886 140.877C68.3 141.675 67.9365 142.367 67.5979 142.953C67.4885 143.143 67.3667 143.229 67.2324 143.211C67.0929 143.203 66.9723 143.151 66.8707 143.057C66.769 142.962 66.6958 142.859 66.6511 142.749C66.6116 142.63 66.6293 142.568 66.7043 142.564L72.5677 131.064ZM82.1487 147.782C81.7048 147.947 81.199 148.093 80.6312 148.223C80.0634 148.352 79.4868 148.434 78.9013 148.469C78.3159 148.504 77.7527 148.479 77.2117 148.396C76.6707 148.312 76.2043 148.151 75.8126 147.913C75.4261 147.665 75.1336 147.328 74.9353 146.901C74.7511 146.47 74.7258 145.92 74.8593 145.251C74.9712 144.787 75.1943 144.296 75.5287 143.779C75.872 143.268 76.2852 142.761 76.768 142.258C77.2652 141.751 77.8145 141.268 78.416 140.809C79.0318 140.347 79.67 139.94 80.3305 139.587C81 139.24 81.6796 138.959 82.3692 138.744C83.073 138.525 83.7473 138.409 84.3921 138.396C85.0511 138.38 85.6728 138.48 86.2571 138.697C86.8467 138.905 87.3664 139.265 87.8163 139.778C87.8885 139.819 87.9232 139.863 87.9204 139.91C87.9228 139.947 87.9039 139.991 87.8636 140.04C87.8234 140.088 87.7663 140.146 87.6923 140.211C87.6274 140.282 87.5637 140.372 87.5012 140.48C86.8947 140.009 86.2313 139.711 85.5109 139.583C84.7957 139.447 84.0586 139.442 83.2997 139.57C82.5497 139.702 81.8024 139.944 81.058 140.296C80.3135 140.648 79.6113 141.073 78.9514 141.57C78.3006 142.072 77.7141 142.629 77.192 143.242C76.6751 143.846 76.2621 144.467 75.953 145.107C75.687 145.651 75.6346 146.096 75.7959 146.441C75.9624 146.778 76.2552 147.031 76.6743 147.201C77.1077 147.367 77.6274 147.457 78.2333 147.47C78.8444 147.474 79.4687 147.413 80.1062 147.288C80.758 147.159 81.3784 146.97 81.9674 146.721C82.5654 146.477 83.0589 146.184 83.4481 145.844L81.0124 144.437C80.9864 144.17 81.0562 144.018 81.2218 143.981C81.3873 143.944 81.6113 143.983 81.8938 144.098C82.1904 144.209 82.5237 144.372 82.8936 144.585C83.2634 144.799 83.6371 145.027 84.0146 145.269C84.1475 145.309 84.3411 145.349 84.5955 145.388C84.8551 145.417 85.0952 145.46 85.3159 145.515C85.5366 145.57 85.6933 145.642 85.7859 145.732C85.8875 145.827 85.8431 145.945 85.6525 146.088C85.6331 146.101 85.5833 146.114 85.5031 146.128C85.4281 146.133 85.3416 146.137 85.2433 146.14C85.1594 146.14 85.0754 146.14 84.9914 146.139C84.9164 146.144 84.8673 146.146 84.8441 146.145C84.3828 146.444 83.943 146.851 83.5246 147.367C83.1063 147.884 82.7155 148.446 82.3523 149.054C81.9892 149.662 81.6556 150.282 81.3518 150.912C81.057 151.548 80.805 152.13 80.5959 152.659L79.9802 152.538C79.9681 152.35 80.0424 152.045 80.2032 151.62C80.3731 151.201 80.5754 150.746 80.8101 150.257C81.0449 149.767 81.2853 149.298 81.5315 148.851C81.7829 148.395 81.9886 148.038 82.1487 147.782Z" fill="#565656"/>
    <path d="M18.9239 56.2604C15.0028 38.8708 18.1056 4.39855 61.8864 5.62604" stroke="#565656" stroke-linecap="round" stroke-dasharray="5 5"/>
    <path d="M68.2291 4.78189C68.8476 5.1747 68.8476 6.07737 68.2291 6.47018L63.4225 9.52277C62.7567 9.94558 61.8864 9.46729 61.8864 8.67861V2.57346C61.8864 1.78478 62.7567 1.30649 63.4225 1.7293L68.2291 4.78189Z" fill="#565656"/>
</svg>